<?xml version="1.0" standalone="no"?>
<!DOCTYPE svg PUBLIC "-//W3C//DTD SVG 1.1//EN" "http://www.w3.org/Graphics/SVG/1.1/DTD/svg11.dtd" >
<svg xmlns="http://www.w3.org/2000/svg">
<metadata>Generated by IcoMoon</metadata>
<defs>
<font id="susu-icons" horiz-adv-x="1024">
<font-face units-per-em="1024" ascent="960" descent="-64" />
<missing-glyph horiz-adv-x="1024" />
<glyph unicode="&#x20;" horiz-adv-x="512" d="" />
<glyph unicode="&#xe900;" glyph-name="ads" horiz-adv-x="1144" d="M0 960v-843.294h1144.471v843.294h-1144.471zM120.471 839.529h903.529v-602.353h-903.529v602.353zM0 116.706h180.706v-180.706h-180.706v180.706zM722.824 719.059h180.706v-120.471h-180.706v120.471zM722.824 478.118h180.706v-120.471h-180.706v120.471zM240.941 719.059h361.412v-361.412h-361.412v361.412zM481.882 116.706h180.706v-180.706h-180.706v180.706zM722.824 116.706h180.706v-180.706h-180.706v180.706zM963.765 116.706h180.706v-180.706h-180.706v180.706z" />
<glyph unicode="&#xe901;" glyph-name="messages" d="M0 960v-731.429h195.048v-310.095l320.476 310.095h508.476v731.429zM97.524 862.476h828.952v-536.381h-450.476l-183.429-177.524v177.524h-195.048zM292.571 667.429h97.524v-97.524h-97.524v97.524zM487.619 667.429h97.524v-97.524h-97.524v97.524zM682.667 667.429h97.524v-97.524h-97.524v97.524z" />
<glyph unicode="&#xe902;" glyph-name="calendar" horiz-adv-x="1081" d="M0 846.222v-910.222h1080.889v910.222h-1080.889zM113.778 732.444h853.333v-682.667h-853.333v682.667zM113.778 960h170.667v-113.778h-170.667v113.778zM398.222 618.667h113.778v-113.778h-113.778v113.778zM568.889 618.667h113.778v-113.778h-113.778v113.778zM739.556 618.667h113.778v-113.778h-113.778v113.778zM398.222 448h113.778v-113.778h-113.778v113.778zM227.556 448h113.778v-113.778h-113.778v113.778zM568.889 448h113.778v-113.778h-113.778v113.778zM398.222 277.333h113.778v-113.778h-113.778v113.778zM227.556 277.333h113.778v-113.778h-113.778v113.778zM568.889 277.333h113.778v-113.778h-113.778v113.778zM739.556 448h113.778v-113.778h-113.778v113.778zM796.444 960h170.667v-113.778h-170.667v113.778z" />
<glyph unicode="&#xe903;" glyph-name="burger" horiz-adv-x="1056" d="M0 960v-1024h1056v1024zM64 896h928v-896h-928zM384 608h320v-64h-320zM384 480h320v-64h-320zM384 352h320v-64h-320z" />
<glyph unicode="&#xe904;" glyph-name="documents" horiz-adv-x="922" d="M0 960v-1024h614.4v307.2h307.2v716.8h-921.6zM102.4 857.6h716.8v-512h-307.2v-307.2h-409.6v819.2zM204.8 755.2h512v-102.4h-512v102.4zM204.8 601.6h512v-102.4h-512v102.4zM204.8 448h204.8v-102.4h-204.8v102.4zM204.8 294.4h204.8v-102.4h-204.8v102.4zM819.2 243.2h102.4l-307.2-307.2v102.4z" />
<glyph unicode="&#xe905;" glyph-name="exit" d="M0 960h640v-320h-128v192h-384v-768h384v192h128v-320h-640v1024zM384 512h384v192l256-256-256-256v192h-384v128z" />
<glyph unicode="&#xe906;" glyph-name="file" horiz-adv-x="838" d="M93.091 960.727c-51.413 0-93.091-41.678-93.091-93.091v0-839.273c0-51.413 41.678-93.091 93.091-93.091v0h651.636c51.413 0 93.091 41.678 93.091 93.091v0 560h-372.364v372.364h-372.364zM558.545 960.727v-279.273h279.273l-279.273 279.273zM558.545 445.091c127.98 0 232.727-104.747 232.727-232.727s-104.747-232.727-232.727-232.727c-127.98 0-232.727 104.747-232.727 232.727s104.747 232.727 232.727 232.727zM558.545 352c-77.67 0-139.636-61.966-139.636-139.636s61.966-139.636 139.636-139.636c77.67 0 139.636 61.966 139.636 139.636s-61.966 139.636-139.636 139.636z" />
<glyph unicode="&#xe907;" glyph-name="filter" d="M0 960v-121.913l398.222-341.333v-560.754l227.556 227.556v325.063l398.222 357.604v113.778h-1024zM113.778 846.222h796.444l-113.778-56.889-238.933-246.5v-284.444l-91.022-94.834v379.278l-238.933 246.5z" />
<glyph unicode="&#xe908;" glyph-name="flag" horiz-adv-x="1106" d="M680.908 21.113l-85.113-85.113-595.794 851.135s156.013 198.57 340.454 170.227 324.708-136.182 387.777-141.884c60.162 2.434 113.616 29.262 151.078 70.794l0.169 0.19 226.998-439.781s-7.064-42.557-170.227-85.113-389.054 116.861-449.569 75.921-54.132-49.281-54.132-49.281z" />
<glyph unicode="&#xe909;" glyph-name="heart" horiz-adv-x="1147" d="M571.368-60.299l-491.027 523.104c-54.284 57.986-82.66 132.010-80.193 210.969s35.778 151.749 92.53 206.034c54.284 51.817 127.075 80.193 202.333 80.193 81.427 0 159.152-33.311 214.67-92.53l61.687-65.388 61.687 65.388c55.518 59.219 133.243 92.53 214.67 92.53 75.258 0 146.814-28.376 202.333-80.193 57.986-54.284 90.063-127.075 92.53-206.034s-25.908-154.217-80.193-210.969l-491.027-523.104zM312.283 846.496c-48.116 0-93.764-18.506-128.308-50.583-37.012-34.545-46.882-80.193-48.116-129.542s16.039-97.465 50.583-133.243l386.159-404.665 386.159 404.665c34.545 35.778 62.92 93.764 61.687 144.347s-22.207 85.128-59.219 119.672c-34.545 32.077-80.193 50.583-128.308 50.583-53.051 0-112.27-41.947-148.048-80.193l-112.27-115.971-112.27 114.737c-35.778 38.246-94.998 80.193-148.048 80.193z" />
<glyph unicode="&#xe90a;" glyph-name="honor" horiz-adv-x="1132" d="M565.895 798.316l62.141-118.568 126.491-25.546-88.064-98.789 16.168-134.36-116.574 57.506-116.736-57.506 16.168 134.36-88.226 98.789 126.437 25.546 62.195 118.568zM107.789 960v-107.789h107.789v-53.895h-215.579v-215.579l294.737-245.684 140.842-137.263-4.421-48.211-107.789-107.789h-107.789v-107.789h700.632v107.789h-107.789l-107.789 107.789 0.737 53.263 135.579 132.211 294.842 245.684v215.579h-215.579v53.895h107.789v107.789h-916.211zM323.368 852.211h485.053v-431.158l-215.579-215.579-269.474 215.579v431.158zM107.789 690.526h107.789v-161.684l-107.789 107.789v53.895zM916.211 690.526h107.789v-53.895l-107.789-107.789v161.684zM538.947 151.579l161.684-107.789h-269.474l107.789 107.789z" />
<glyph unicode="&#xe90b;" glyph-name="idea" horiz-adv-x="663" d="M331.294 960h-0.017c-182.821-0.174-330.973-148.432-330.973-331.294 0-101.214 45.388-191.827 117.395-252.988l-0.104 0.311c1.896-4.991 2.934-10.405 2.934-16.061 0-0.816-0.022-1.627-0.060-2.321v-180.706h421.647v180.706l0.039-0.067c-1.488 2.402-2.347 5.235-2.347 8.268 0 2.355 0.518 4.588 1.405 6.496l0.571 0.456c73.812 60.762 120.879 152.837 120.879 255.905 0 182.969-148.325 331.294-331.294 331.294-0.027 0-0.053 0-0.076 0zM331.294 839.529c116.426-0.012 210.803-94.396 210.803-210.824 0-57.269-22.835-109.204-59.896-147.198l0.042 0.044c-10.722-11.023-60.597-63.669-60.597-63.669v-120.471h-180.706v120.471s-48.188 51.622-54.935 58.067c-40.4 38.482-65.524 92.685-65.524 152.757 0 116.43 94.382 210.817 210.811 210.824v0zM120.471 116.706h421.647v-120.471h-120.471v-60.235h-180.706v60.235h-120.471v120.471z" />
<glyph unicode="&#xe90c;" glyph-name="image" horiz-adv-x="1229" d="M0 960v-1024h1228.8v1024h-1228.8zM102.4 857.6h1024v-819.2h-1024v819.2zM614.4 601.6c0-84.831-68.769-153.6-153.6-153.6s-153.6 68.769-153.6 153.6c0 84.831 68.769 153.6 153.6 153.6s153.6-68.769 153.6-153.6zM102.4 38.4h1024v307.2l-177.459 204.8-334.541-307.2-102.4 102.4-409.6-204.8v-102.4z" />
<glyph unicode="&#xe90d;" glyph-name="like" horiz-adv-x="1252" d="M1197.852 580.437h-243.143c40.219 77.266 65.391 168.163 69.251 264.545l0.039 1.24c1.171 5.651 1.842 12.144 1.842 18.794 0 53.475-43.35 96.825-96.825 96.825-6.65 0-13.144-0.67-19.417-1.947l0.623 0.106h-19.684l-6.713-4.779c-29.013-365.34-523.378-450.219-525.54-451.015l-16.953 0.683v-455.111h25.145c141.81-30.412 265.207-69.598 383.245-119.035l-14.15 5.257h208.1c70.897 11.105 125.694 67.915 133.624 138.887l0.065 0.718v4.779c31.905 10.567 55.447 37.91 60.358 71.312l0.058 0.482v80.668c30.106 11.794 52.209 38.046 57.943 69.98l0.084 0.562v75.662h3.3c1.182-0.102 2.558-0.161 3.948-0.161 26.832 0 48.583 21.751 48.583 48.583 0 0.977-0.029 1.948-0.086 2.91l0.006-0.133v100.011c-0.273 27.817-22.887 50.262-50.743 50.262-1.041 0-2.076-0.031-3.102-0.093l0.141 0.007zM0 504.889h227.556v-513.707l-227.556 58.596v455.111z" />
<glyph unicode="&#xe90e;" glyph-name="coffee" horiz-adv-x="923" d="M415.36 589.868c0 24.46 0 70.519-82.334 70.519s-72.457 58.335 10.246 58.335 210.541-1.938 210.541 118.424c0 121.931-178.605 119.993-178.605 119.993s129.223-6.369 129.223-91.471c0-92.302-137.161-91.471-163.467-91.471-64.612 0-156.914-24.645-156.914-92.302 0-57.689 83.718-62.027 158.667-62.027s72.642-29.998 72.642-29.998zM0 583.223v-462.895c0-101.954 82.65-184.604 184.604-184.604v0h369.209c101.954 0 184.604 82.65 184.604 184.604v0 462.895h-738.417zM830.719 398.618v-184.604h-92.302v184.604h92.302zM923.021 490.92h-184.604v-369.209h92.302c50.977 0 92.302 41.325 92.302 92.302v0 276.906z" />
<glyph unicode="&#xe90f;" glyph-name="news" horiz-adv-x="1186" d="M0 960v-922.947c0-62.356 1077.647-100.853 107.789-101.053l969.857 0.199c-31.175 25.808-51.618 64.125-53.647 107.59v916.211h-1024zM107.789 852.211h808.421v-808.421h-754.526c-25.838 8.112-45.782 28.057-53.738 53.318l-0.157 0.576v754.526zM1024 582.737h161.684v-538.947c-3.479-58.078-49.712-104.311-107.472-107.774l-0.317-0.015h-53.895c30.541 24.021 50.823 59.899 53.866 100.582l0.028 0.47v437.895h-53.895v107.789zM161.684 798.316v-323.368h323.368v323.368h-323.368zM269.474 690.526h107.789v-107.789h-107.789v107.789zM161.684 421.053v-323.368h323.368v323.368h-323.368zM269.474 313.263h107.789v-107.789h-107.789v107.789zM538.947 798.316h323.368v-107.789h-323.368v107.789zM538.947 636.632h323.368v-107.789h-323.368v107.789zM538.947 421.053h323.368v-107.789h-323.368v107.789zM538.947 259.368h323.368v-107.789h-323.368v107.789z" />
<glyph unicode="&#xe910;" glyph-name="note" horiz-adv-x="838" d="M186.182 774.563h465.455v93.091h-101.655c-19.459 54.687-70.776 93.135-131.072 93.135s-111.613-38.448-130.77-92.165l-0.302-0.97h-101.655v-93.091zM744.727 867.654v-186.182h-651.636v186.182c-51.413 0-93.091-41.678-93.091-93.091v0-746.124c0-51.413 41.678-93.091 93.091-93.091v0h651.636c51.413 0 93.091 41.678 93.091 93.091v0 746.124c0 51.413-41.678 93.091-93.091 93.091v0zM94.487 588.381h465.455v-93.091h-465.455v93.091zM94.487 401.455h277.876v-93.091h-277.876v93.091zM651.636 122.927h-557.149v93.091h557.149v-93.091z" />
<glyph unicode="&#xe911;" glyph-name="notify" horiz-adv-x="967" d="M113.778 789.333v-398.222l-113.778-113.778v-170.667h967.111v170.667l-113.778 113.778v398.222l-170.667 170.667h-398.222l-170.667-170.667zM227.556 732.444l113.778 113.778h284.444l113.778-113.778v-394.638l113.778-117.362h-739.556l113.778 113.778v398.222zM398.222 49.778h170.667v-113.778h-170.667v113.778z" />
<glyph unicode="&#xe912;" glyph-name="photo" horiz-adv-x="1293" d="M0 960v-1024h1293.474v1024zM107.789 852.211h1077.895v-808.421h-1077.895zM975.158 593.79l-391.579-223.684-270.105 54-313.474-188.105v-300h1293.474v403.158zM965.053 463.895l220.632-176.526v-243.579h-1077.895v131.158l225.473 135.263 268.843-53.79zM485.053 744.421c-88.657 0-161.684-73.027-161.684-161.684s73.027-161.684 161.684-161.684c88.657 0 161.684 73.027 161.684 161.684s-73.027 161.684-161.684 161.684zM485.053 636.632c30.404 0 53.895-23.491 53.895-53.895s-23.491-53.895-53.895-53.895c-30.404 0-53.895 23.491-53.895 53.895s23.491 53.895 53.895 53.895z" />
<glyph unicode="&#xe913;" glyph-name="search" horiz-adv-x="1229" d="M1207.228-10.957c-21.852-32.129-58.241-52.955-99.494-52.955-25.843 0-49.778 8.173-69.359 22.076l0.371-0.25-224.666 144.725c-31.727 22.523-52.18 59.125-52.18 100.504 0 1.675 0.034 3.343 0.1 5.002l-0.008-0.238c-80.045-86.913-194.398-141.174-321.425-141.174-93.902 0-180.878 29.651-252.077 80.101l1.358-0.913c-94.568 66.884-161.224 167.834-182.211 284.637l-0.402 2.697c-4.688 24.362-7.37 52.381-7.37 81.027 0 94.697 29.308 182.549 79.347 254.98l-0.98-1.5c79.641 116.693 211.999 192.302 362.016 192.302 93.9 0 180.882-29.622 252.109-80.032l-1.364 0.916c115.435-82.939 189.735-216.822 189.735-368.058 0-71.292-16.51-138.727-45.916-198.692l1.179 2.662c13.906 6.135 30.121 9.707 47.17 9.707 25.813 0 49.715-8.187 69.249-22.106l-0.366 0.248 224.802-144.725c31.665-22.742 52.047-59.46 52.047-100.939 0-26.155-8.104-50.417-21.938-70.413l0.27 0.412zM742.4 569.31c-14.857 83.33-61.316 153.733-126.283 199.714l-0.966 0.649c-48.738 34.54-109.423 55.212-174.936 55.212-104.578 0-196.853-52.678-251.738-132.946l-0.675-1.046c-34.112-49.59-54.481-110.94-54.481-177.047 0-105.403 51.784-198.712 131.298-255.873l0.939-0.642c48.738-34.54 109.423-55.212 174.936-55.212 104.578 0 196.853 52.678 251.738 132.946l0.675 1.046c34.187 49.445 54.61 110.682 54.61 176.688 0 19.93-1.862 39.424-5.421 58.32l0.305-1.946z" />
<glyph unicode="&#xe914;" glyph-name="service" horiz-adv-x="1252" d="M113.778 106.667h113.778s-74.638 512 398.222 512c476.444 0 398.222-512 398.222-512h113.778v113.095c0 294.798-193.138 512.683-512 512.683v0c-390.713 0-512-293.66-512-505.742v-120.036zM739.556 846.222c0-62.838-50.94-113.778-113.778-113.778s-113.778 50.94-113.778 113.778c0 62.838 50.94 113.778 113.778 113.778s113.778-50.94 113.778-113.778zM0 220.444v-284.444h1251.556v284.444h-1251.556zM113.778 106.667h1024v-56.889h-1024v56.889z" />
<glyph unicode="&#xe915;" glyph-name="share" horiz-adv-x="1021" d="M835.464 960c-102.536 0-185.659-83.122-185.659-185.659v0c0-102.536 83.122-185.659 185.659-185.659s185.659 83.122 185.659 185.659v0c0 102.536-83.122 185.659-185.659 185.659v0zM185.659 588.683c-102.536 0-185.659-83.122-185.659-185.659v0c0-102.536 83.122-185.659 185.659-185.659s185.659 83.122 185.659 185.659v0c0 102.536-83.122 185.659-185.659 185.659v0zM742.634 310.195c-102.536 0-185.659-83.122-185.659-185.659v0c0-102.536 83.122-185.659 185.659-185.659s185.659 83.122 185.659 185.659v0c0 102.536-83.122 185.659-185.659 185.659v0zM598.285 144.866l-322.489 161.244 41.495 83.546 322.489-161.337zM326.852 430.316l-46.415 80.576 423.394 241.913 46.415-80.576z" />
<glyph unicode="&#xe916;" glyph-name="staff" horiz-adv-x="1186" d="M215.579 960h970.105v-862.316h-215.579v107.789h107.789v646.737h-754.526v-107.789h-107.789v215.579zM0 744.421v-808.421h970.105v808.421h-970.105zM107.789 636.632h754.526v-592.842h-754.526v592.842zM538.947 528.842h161.684v-107.789h-161.684v107.789zM538.947 313.263h269.474v-107.789h-269.474v107.789zM386.264 485.726v-129.347l98.789-43.116v-161.684h-323.368v161.684l89.843 43.116c-1.64 14.434-2.575 31.164-2.575 48.112 0 27.41 2.447 54.248 7.134 80.309l-0.408-2.739c6.521 26.947 19.294 38.104 85.639 46.781 21.093-6.561 37.543-22.408 44.798-42.635l0.15-0.481z" />
<glyph unicode="&#xe917;" glyph-name="star" d="M512 237.521l-228.352-175.29 87.505 281.228-240.919 197.632h295.098l86.388 267.45 86.388-267.45h295.471l-241.012-197.632 87.505-281.228zM512 657.175l31.744-98.118 21.225-64.512h199.028l-164.585-134.889 18.618-59.951 34.63-111.709-140.474 107.706-140.381-107.706 53.341 171.66-164.771 134.889h199.121l20.759 64.512 31.744 98.118zM512 960l-120.273-372.364h-391.727l317.44-260.189-121.856-391.447 316.509 242.781 316.509-242.781-121.949 391.447 317.44 260.189h-391.727l-120.273 372.364z" />
<glyph unicode="&#xe918;" glyph-name="structure" horiz-adv-x="1186" d="M377.263 960v-377.263h431.158v377.263h-431.158zM485.053 852.211h215.579v-161.684h-215.579v161.684zM646.737 474.947h431.158v-107.789h-431.158v107.789zM107.789 474.947h431.158v-107.789h-431.158v107.789zM538.947 582.737h107.789v-323.368h-107.789v323.368zM970.105 367.158h107.789v-107.789h-107.789v107.789zM107.789 367.158h107.789v-107.789h-107.789v107.789zM0 259.368v-323.368h323.368v323.368h-323.368zM107.789 151.579h107.789v-107.789h-107.789v107.789zM431.158 259.368v-323.368h323.368v323.368h-323.368zM538.947 151.579h107.789v-107.789h-107.789v107.789zM862.316 259.368v-323.368h323.368v323.368h-323.368zM970.105 151.579h107.789v-107.789h-107.789v107.789z" />
<glyph unicode="&#xe919;" glyph-name="u" horiz-adv-x="878" d="M0 960v-541.696c0-181.833 103.96-482.304 438.857-482.304v0c273.31 0 438.857 235.569 438.857 488.204v535.796h-877.714zM97.524 862.476h682.667v-487.619c0-188.513-152.82-341.333-341.333-341.333s-341.333 152.82-341.333 341.333v0 487.619zM195.048 667.429h97.524v-243.81s19.017-146.286 146.286-146.286c0.452-0.005 0.985-0.008 1.52-0.008 79.957 0 144.774 64.818 144.774 144.774 0 0.534-0.003 1.068-0.009 1.601l0.001-0.081v243.81h97.524v-208.652c0-144.384-91.965-278.967-243.81-278.967v0c-186.075 0-243.81 171.691-243.81 275.602v212.017zM146.286 764.952h195.048v-97.524h-195.048v97.524zM536.381 764.952h195.048v-97.524h-195.048v97.524z" />
<glyph unicode="&#xe91a;" glyph-name="newspaper" d="M896 704v128h-896v-704c0-35.346 28.654-64 64-64h864c53.022 0 96 42.978 96 96v544h-128zM832 128h-768v640h768v-640zM128 640h640v-64h-640zM512 512h256v-64h-256zM512 384h256v-64h-256zM512 256h192v-64h-192zM128 512h320v-320h-320z" />
<glyph unicode="&#xe91b;" glyph-name="pencil" d="M864 960c88.364 0 160-71.634 160-160 0-36.020-11.91-69.258-32-96l-64-64-224 224 64 64c26.742 20.090 59.978 32 96 32zM64 224l-64-288 288 64 592 592-224 224-592-592zM715.578 596.422l-448-448-55.156 55.156 448 448 55.156-55.156z" />
<glyph unicode="&#xe91c;" glyph-name="music" d="M960 960h64v-736c0-88.366-100.29-160-224-160s-224 71.634-224 160c0 88.368 100.29 160 224 160 62.684 0 119.342-18.4 160-48.040v368.040l-512-113.778v-494.222c0-88.366-100.288-160-224-160s-224 71.634-224 160c0 88.368 100.288 160 224 160 62.684 0 119.342-18.4 160-48.040v624.040l576 128z" />
<glyph unicode="&#xe91d;" glyph-name="film" d="M0 832v-768h1024v768h-1024zM192 128h-128v128h128v-128zM192 384h-128v128h128v-128zM192 640h-128v128h128v-128zM768 128h-512v640h512v-640zM960 128h-128v128h128v-128zM960 384h-128v128h128v-128zM960 640h-128v128h128v-128zM384 640v-384l256 192z" />
<glyph unicode="&#xe91e;" glyph-name="away" horiz-adv-x="1221" d="M463.315 131.812l-88.811 172.272h43.87l-100.581 177.622h34.24l-120.911 208.652-119.841-208.652h34.24l-100.581-177.622h43.87l-88.811-172.272h157.292l-10.7-131.611h-56.711v-64.201h283.553v64.201h-56.711l-10.7 131.611zM252.522 0.201h-42.8l10.7 131.611h21.4zM566.036 702.127c0-89.881 72.761-162.642 162.642-162.642s162.642 72.761 162.642 162.642c0 89.881-72.761 162.642-162.642 162.642s-162.642-72.761-162.642-162.642zM827.118 702.127c0-54.571-43.87-98.441-98.441-98.441s-98.441 43.87-98.441 98.441c0 54.571 43.87 98.441 98.441 98.441s98.441-43.87 98.441-98.441zM967.29 801.638c-12.84 31.030-32.1 59.921-56.711 83.461l-44.94-46.010c18.19-18.19 32.1-39.59 42.8-63.131zM803.578 522.366l24.61-58.851c31.030 12.84 59.921 32.1 83.461 56.711l-44.94 43.87c-18.19-18.19-39.59-32.1-63.131-41.73zM987.62 702.127v0h-64.201c0-25.68-5.35-51.361-14.98-74.901l58.851-24.61c13.91 32.1 20.33 65.271 20.33 99.511zM548.915 775.958l-58.851 24.61c-12.84-31.030-19.26-64.201-19.26-98.441v0h64.201c-1.070 25.68 4.28 50.29 13.91 73.831zM654.846 522.366l-24.61-58.851c31.030-12.84 64.201-19.26 98.441-19.26v0 64.201c-25.68-1.070-50.29 4.28-73.831 13.91zM802.508 881.889l24.61 58.851c-31.030 12.84-64.201 19.26-98.441 19.26h-1.070l1.070-64.201c25.68 1.070 50.29-4.28 73.831-13.91zM653.776 881.889l-24.61 58.851c-31.030-12.84-59.921-32.1-83.461-56.711l46.010-44.94c17.12 18.19 38.52 33.17 62.061 42.8zM490.065 602.617c12.84-31.030 32.1-59.921 56.711-83.461l44.94 44.94c-18.19 18.19-32.1 39.59-42.8 63.131zM848.518 314.784l-140.171-177.622-113.421-136.961h-126.261v-64.201h752.217v64.201h-117.701l-114.491 136.961z" />
<glyph unicode="&#xe91f;" glyph-name="book" d="M896 832v-832h-672c-53.026 0-96 42.98-96 96s42.974 96 96 96h608v768h-640c-70.398 0-128-57.6-128-128v-768c0-70.4 57.602-128 128-128h768v896h-64zM224.056 128v0c-0.018-0.002-0.038 0-0.056 0-17.672 0-32-14.326-32-32s14.328-32 32-32c0.018 0 0.038 0.002 0.056 0.002v-0.002h607.89v64h-607.89z" />
<glyph unicode="&#xe920;" glyph-name="celebration" horiz-adv-x="791" d="M790.768 580.165c0 147.714-101.067 255.445-239.896 255.445-13.328 0-26.655-1.111-39.983-3.332-47.757 79.965-131.054 127.722-234.343 127.722-162.152 0-276.547-121.059-276.547-294.317 1.111-87.74 27.766-173.258 77.744-245.449 36.651-51.089 79.965-86.629 127.722-104.399l-54.421-86.629c-6.664-9.996-7.774-23.323-1.111-33.319 5.553-11.106 16.659-17.77 28.876-17.77h62.195v-28.876c1.111-58.863 48.868-106.62 107.731-107.731 22.213 0 41.093-18.881 41.093-41.093v-29.987h66.638v29.987c0 59.974-47.757 107.731-107.731 107.731-22.213 1.111-39.983 18.881-41.093 41.093v28.876h67.748c12.217 0 23.323 6.664 28.876 17.77 5.553 9.996 5.553 23.323-1.111 33.319l-54.421 86.629c17.77 6.664 34.43 15.549 49.978 26.655 22.213-25.544 49.978-45.536 81.076-59.974l-55.531-87.74c-6.664-9.996-6.664-23.323-1.111-33.319 5.553-11.106 16.659-17.77 28.876-17.77h63.306c1.111-58.863 48.868-105.51 107.731-104.399 22.213 0 39.983-17.77 39.983-39.983 0 0 0-1.111 0-1.111v-62.195h66.638v62.195c1.111 58.863-46.646 106.62-105.51 107.731 0 0-1.111 0-1.111 0-22.213-1.111-39.983 16.659-41.093 37.761h66.638c12.217 0 23.323 6.664 29.987 17.77 5.553 9.996 5.553 23.323-1.111 33.319l-56.642 88.85c89.961 38.872 169.926 149.935 169.926 296.538zM513.111 210.325l36.651 57.753h2.221l36.651-57.753zM550.872 334.716c-35.54 0-71.080 17.77-102.178 52.2 9.996 9.996 18.881 21.102 27.766 33.319 49.978 72.191 76.633 157.709 77.744 245.449 0 35.54-5.553 69.97-15.549 103.289h12.217c103.289 0 173.258-75.523 173.258-188.807s-84.408-245.449-173.258-245.449z" />
<glyph unicode="&#xe921;" glyph-name="library" horiz-adv-x="1088" d="M1024 0v64h-64v384h64v64h-192v-64h64v-384h-192v384h64v64h-192v-64h64v-384h-192v384h64v64h-192v-64h64v-384h-192v384h64v64h-192v-64h64v-384h-64v-64h-64v-64h1088v64h-64zM512 960h64l512-320v-64h-1088v64l512 320z" />
<glyph unicode="&#xe922;" glyph-name="conference" horiz-adv-x="1109" d="M815.764 806.774c-5.606 26.161 0 50.453-1.869 74.745-3.737 31.766-20.555 54.19-50.453 65.401-18.686 7.474-39.241 13.080-57.927 13.080 0 0 0 0-1.869 0 0 0 0 0-1.869 0-20.555 0-39.241-3.737-57.927-11.212-28.029-13.080-46.715-33.635-50.453-65.401-1.869-24.292 1.869-50.453-1.869-74.745-3.737-14.949 3.737-31.766 18.686-42.978 1.869-1.869 3.737-3.737 3.737-5.606 11.212-35.504 50.453-69.139 87.825-71.007 39.241-1.869 82.219 33.635 93.431 71.007 0 1.869 1.869 3.737 3.737 5.606 14.949 9.343 20.555 26.161 16.818 41.109zM1028.786 158.365c0-3.737-1.869-5.606-5.606-5.606h-87.825c-1.869 0-3.737 1.869-5.606 3.737l-22.423 162.569c0 3.737-3.737 5.606-5.606 3.737-29.898-9.343-28.029-89.693-18.686-164.438 0-3.737-1.869-5.606-5.606-5.606h-347.562c-3.737 0-5.606 1.869-5.606 5.606 7.474 76.613 9.343 156.964-18.686 166.307-3.737 0-5.606-1.869-5.606-3.737l-22.423-164.438c0-1.869-1.869-3.737-5.606-3.737h-87.825c-3.737 0-5.606 1.869-5.606 5.606l28.029 345.693c0 3.737-3.737 54.19 61.664 61.664v0l104.642 31.766c0 0 24.292 7.474 39.241 24.292 3.737 3.737 9.343 0 7.474-3.737 0-33.635 1.869-121.46 39.241-267.212v0c1.869 22.423 3.737 46.715 5.606 69.139 1.869 20.555 3.737 42.978 5.606 63.533s3.737 41.109 5.606 63.533c0 1.869 0 5.606 1.869 7.474 0 1.869 1.869 1.869 1.869 3.737 1.869 0 3.737 1.869 5.606 1.869 5.606 0 13.080 0 18.686 0 3.737 0 5.606 0 9.343 0 1.869 0 5.606 0 7.474 0 1.869-1.869 3.737-1.869 3.737-5.606 1.869-5.606 1.869-13.080 3.737-18.686 0-5.606 0-13.080 1.869-18.686 5.606-56.058 9.343-112.117 14.949-168.175v0c37.372 145.752 41.109 233.577 39.241 267.212 0 3.737 5.606 7.474 7.474 3.737 14.949-14.949 39.241-24.292 39.241-24.292l102.774-31.766c65.401-7.474 61.664-57.927 61.664-61.664v0zM664.407 573.197c1.869-1.869 5.606-3.737 7.474-3.737 20.555 0 41.109 0 61.664 0 3.737 0 7.474 1.869 9.343 3.737 7.474 11.212 13.080 22.423 18.686 33.635 5.606 14.949 1.869 22.423-13.080 28.029-28.029 11.212-61.664 9.343-89.693 0-13.080-5.606-18.686-13.080-13.080-28.029 5.606-9.343 13.080-22.423 18.686-33.635zM75.794 341.489h186.861c0-28.029-7.474-54.19-29.898-72.876-26.161-24.292-57.927-29.898-93.431-20.555 0 0-46.715 9.343-59.796 57.927-1.869 9.343-3.737 16.818-3.737 26.161 0 3.737 0 5.606 0 9.343zM260.786 378.861c0-5.606 0-11.212 0-16.818h-186.861c0 5.606 0 11.212 0 16.818zM262.655 418.102c0-5.606 0-11.212 0-16.818h-186.861c0 5.606 0 11.212 0 16.818zM262.655 457.343c0-5.606 0-13.080 0-18.686h-186.861c0 16.818 0 35.504 0 52.321 0 41.109 31.766 78.482 72.876 85.956 29.898 5.606 63.533-1.869 85.956-24.292 24.292-22.423 28.029-59.796 28.029-95.299zM1109.137 25.693c0-48.584-28.029-89.693-63.533-89.693h-954.861c-35.504 0-63.533 39.241-63.533 89.693 0 48.584 28.029 89.693 63.533 89.693h59.796v48.584c-11.212 1.869-22.423 3.737-31.766 7.474-93.431 31.766-125.197 110.248-117.723 198.073 1.869 11.212 9.343 16.818 20.555 16.818 9.343 0 16.818-7.474 16.818-18.686s0-24.292 0-35.504c1.869-54.19 26.161-93.431 72.876-117.723 18.686-9.343 37.372-14.949 57.927-14.949 18.686 0 39.241 3.737 57.927 14.949 46.715 24.292 71.007 63.533 72.876 117.723 0 11.212 0 24.292 0 35.504s7.474 18.686 16.818 18.686c9.343 0 18.686-5.606 20.555-16.818 7.474-87.825-24.292-166.307-115.854-199.942-9.343-3.737-20.555-5.606-31.766-7.474v-48.584h857.693c31.766 0 61.664-39.241 61.664-87.825z" />
<glyph unicode="&#xe923;" glyph-name="other" horiz-adv-x="1282" d="M1281.673 903.111v-679.32c0-31.791-25.098-56.889-56.889-56.889h-143.895v505.307c0 66.928-53.542 120.471-120.471 120.471h-696.052v110.431c0 31.791 25.098 56.889 56.889 56.889h903.529c31.791 0 56.889-25.098 56.889-56.889zM794.771 424.575c45.176 0 81.987 36.81 81.987 81.987s-36.81 81.987-81.987 81.987c-45.176 0-81.987-36.81-81.987-81.987s36.81-81.987 81.987-81.987zM1017.307 672.209v-679.32c0-31.791-25.098-56.889-56.889-56.889h-903.529c-31.791 0-56.889 25.098-56.889 56.889v679.32c0 31.791 25.098 56.889 56.889 56.889h903.529c31.791 0 56.889-25.098 56.889-56.889zM921.935 633.725h-824.889v-297.83l175.686 177.359c21.752 21.752 58.562 21.752 80.314 0l215.843-215.843-103.739-103.739c-8.366-8.366-8.366-21.752 0-30.118s21.752-8.366 30.118 0l194.092 194.092c21.752 21.752 58.562 21.752 80.314 0l152.261-152.261z" />
<glyph unicode="&#xe924;" glyph-name="teambuilding" horiz-adv-x="872" d="M598.44 764.804v0c-91.954 1.078-78.331 117.548-78.331 117.548 3.406 77.647 72.655 77.647 79.467 77.647s76.061 1.078 79.467-77.647c-1.135 0 12.488-117.548-80.602-117.548v0c1.135 0 1.135 0 0 0zM851.598 496.277l-141.905-115.391 23.84-411.958c1.135-15.098-10.217-28.039-26.11-31.274-17.029-2.157-32.922 8.627-35.192 23.725l-61.303 312.743c-1.135 5.392-5.676 8.627-11.352 8.627s-10.217-3.235-11.352-8.627l-61.303-312.743c-3.406-16.176-18.164-26.961-35.192-23.725-15.893 2.157-27.246 16.176-26.11 31.274l23.84 411.958-144.175 115.391c-24.975 20.49-27.246 55-6.811 78.725l119.2 121.862c3.406 3.235 6.811 6.471 11.352 9.706 32.922 21.568 70.385 35.588 70.385 35.588l31.787-95.98 18.164 50.686c-34.057 44.215 3.406 45.294 9.082 45.294v0c4.541 0 42.004-1.078 9.082-45.294l18.164-50.686 31.787 95.98c0 0 37.463-14.020 70.385-35.588 4.541-3.235 7.947-5.392 11.352-9.706l118.065-121.862c21.57-22.647 19.299-58.235-5.676-78.725zM489.457 463.924l-13.623 120.784-59.032-50.686zM781.213 532.943l-59.032 50.686-13.623-119.705zM273.762 764.804v0 0c93.089 1.078 79.467 117.548 79.467 117.548-3.406 77.647-72.655 77.647-79.467 77.647s-76.061 1.078-79.467-77.647c0 0-13.623-117.548 79.467-117.548v0c-1.135 0-1.135 0 0 0zM138.669-31.073l23.84 411.958-141.905 115.391c-24.975 20.49-27.246 55-6.811 78.725l119.2 121.862c3.406 3.235 6.811 6.471 11.352 9.706 32.922 21.568 70.385 35.588 70.385 35.588l31.787-95.98 18.164 50.686c-34.057 44.215 3.406 45.294 9.082 45.294v0c4.541 0 42.004-1.078 9.082-45.294l18.164-50.686 31.787 95.98c0 0 36.328-14.020 68.114-34.51l-99.901-102.45c-38.598-43.137-32.922-107.843 11.352-144.509l68.114-56.078 2.27-24.804 23.84-411.958c1.135-15.098-10.217-28.039-26.11-31.274-17.029-2.157-32.922 8.627-35.192 23.725l-61.303 312.743c-1.135 5.392-5.676 8.627-11.352 8.627s-10.217-3.235-11.352-8.627l-61.303-312.743c-3.406-16.176-18.164-26.961-35.192-23.725-14.758 4.314-26.11 17.255-26.11 32.353zM163.644 463.924l-13.623 120.784-59.032-50.686z" />
<glyph unicode="&#xe925;" glyph-name="cooperation" horiz-adv-x="935" d="M467.729 317.113l-121.263-73.143c-11.549-3.85-25.023-1.925-30.797 9.624-7.699 9.624-1.925 23.098 7.699 30.797l121.263 71.218v140.511c0 11.549 11.549 23.098 23.098 23.098s21.173-11.549 21.173-23.098v-140.511l121.263-71.218c11.549-7.699 17.323-21.173 9.624-30.797-7.699-11.549-19.248-13.474-30.797-9.624 0 0-121.263 73.143-121.263 73.143zM800.722 297.865c30.797 0 59.669-11.549 76.992-32.722 21.173-19.248 32.722-46.195 32.722-76.992s-11.549-59.669-32.722-78.917c-3.85-3.85-11.549-11.549-19.248-13.474 17.323-7.699 30.797-17.323 42.346-28.872 19.248-19.248 32.722-46.195 32.722-76.992v-34.647c0-7.699-3.85-11.549-11.549-11.549h-242.526c-7.699 0-11.549 3.85-11.549 11.549v34.647c0 30.797 11.549 59.669 32.722 76.992 11.549 11.549 25.023 21.173 42.346 28.872-32.722 19.248-51.97 53.895-51.97 94.316 0 57.744 48.12 107.789 109.714 107.789zM134.737 297.865c30.797 0 59.669-11.549 76.992-32.722 21.173-19.248 32.722-46.195 32.722-76.992s-11.549-59.669-32.722-78.917c-3.85-3.85-11.549-11.549-19.248-13.474 13.474-7.699 30.797-17.323 42.346-28.872 19.248-19.248 32.722-46.195 32.722-76.992v-34.647c0-7.699-3.85-11.549-11.549-11.549h-244.451c-7.699 0-11.549 3.85-11.549 11.549v34.647c0 30.797 11.549 59.669 32.722 76.992 11.549 11.549 25.023 21.173 42.346 28.872-32.722 19.248-53.895 53.895-53.895 94.316 0 57.744 51.97 107.789 113.564 107.789zM467.729 958.075c30.797 0 59.669-13.474 76.992-32.722 21.173-21.173 32.722-50.045 32.722-78.917s-11.549-59.669-32.722-76.992c-3.85-7.699-11.549-11.549-19.248-17.323 13.474-7.699 30.797-17.323 42.346-28.872 19.248-19.248 32.722-46.195 32.722-76.992v-34.647c0-7.699-3.85-11.549-11.549-11.549h-244.451c-7.699 0-11.549 3.85-11.549 11.549v34.647c0 30.797 11.549 59.669 32.722 76.992 11.549 11.549 25.023 21.173 42.346 28.872-32.722 19.248-51.97 55.82-51.97 94.316 1.925 59.669 50.045 111.639 111.639 111.639z" />
<glyph unicode="&#xe926;" glyph-name="needspec" horiz-adv-x="1131" d="M851.982 648.499c-5.026 5.026-11.31 7.54-17.593 8.796 11.31 30.159 16.336 67.857 17.593 77.91 3.77 31.415 1.257 65.344-15.079 94.246-33.929 59.061-110.582 98.016-185.978 116.865-80.423 20.106-165.873 21.362-234.986-18.849-20.106-12.566-41.468-31.415-50.264-51.521-1.257 0-1.257-1.257-2.513-1.257-85.45 12.566-94.246-92.989-81.68-140.74 6.283-25.132 13.823-50.264 25.132-74.14-8.796 0-17.593-3.77-23.876-10.053-7.54-7.54-11.31-18.849-10.053-31.415 1.257-31.415 21.362-71.627 36.442-98.016 1.257-2.513 2.513-5.026 5.026-8.796 7.54-16.336 18.849-38.955 38.955-46.495 3.77-12.566 7.54-23.876 12.566-33.929 31.415-67.857 116.865-116.865 203.571-116.865s172.156 49.008 203.571 116.865c5.026 10.053 8.796 21.362 12.566 33.929 18.849 7.54 30.159 30.159 38.955 46.495 1.257 3.77 2.513 6.283 5.026 8.796 15.079 27.645 35.185 66.6 36.442 98.016-2.513 11.31-6.283 22.619-13.823 30.159zM789.152 539.173c-1.257-2.513-3.77-6.283-5.026-11.31-2.513-6.283-10.053-20.106-15.079-25.132-10.053 1.257-20.106-5.026-22.619-15.079-3.77-15.079-8.796-28.902-13.823-40.212-25.132-52.778-95.502-92.989-165.873-92.989s-140.74 40.212-165.873 92.989c-5.026 12.566-10.053 25.132-13.823 41.468-2.513 10.053-11.31 16.336-20.106 16.336-1.257 0-1.257 0-2.513 0-5.026 3.77-11.31 18.849-15.079 25.132-2.513 3.77-3.77 7.54-5.026 11.31-17.593 31.415-27.645 55.291-30.159 71.627 5.026-3.77 11.31-10.053 17.593-17.593s16.336-10.053 25.132-6.283c17.593 7.54 12.566 37.698 10.053 51.521-3.77 26.389-8.796 51.521-10.053 77.91-1.257 27.645-1.257 62.831 20.106 82.936 12.566 11.31 30.159 12.566 46.495 10.053 33.929-5.026 59.061-21.362 90.476-32.672 36.442-12.566 76.653-12.566 115.608-6.283 32.672 5.026 72.883 26.389 106.812 17.593 51.521-13.823 45.238-80.423 38.955-120.635-2.513-20.106-6.283-38.955-8.796-59.061-1.257-8.796 3.77-18.849 12.566-22.619s18.849-1.257 25.132 6.283c6.283 7.54 12.566 13.823 17.593 17.593-5.026-17.593-15.079-41.468-32.672-72.883zM1129.693-4.939c-1.257 35.185-2.513 70.37-11.31 105.555-22.619 103.042-111.838 149.537-196.031 180.952-43.981 16.336-89.219 32.672-130.688 47.751-55.291-57.804-139.484-94.246-226.19-94.246s-170.899 36.442-226.19 94.246c-41.468-15.079-85.45-31.415-130.688-47.751-82.936-31.415-170.899-77.91-194.775-180.952-7.54-35.185-8.796-71.627-11.31-105.555 0-13.823-1.257-27.645-2.513-41.468 0-5.026 1.257-10.053 5.026-12.566 3.77-3.77 7.54-5.026 12.566-5.026h1095.765c5.026 0 10.053 2.513 12.566 5.026 3.77 3.77 5.026 8.796 5.026 12.566 0 13.823 0 27.645-1.257 41.468z" />
<glyph unicode="&#xe927;" glyph-name="gratis" d="M1003.908 599.691c-20.059 27.725-57.948 32.546-83.579 10.849l-184.988-156.705c-1.114-1.205-1.114-2.411-1.114-2.411s0 0 0-1.205c8.915-36.163-2.229-77.147-31.203-101.256-26.745-21.698-61.291-26.519-92.494-12.054l-210.619 98.845c-7.801 3.616-11.144 13.26-7.801 21.698s12.258 12.054 20.059 8.438l210.619-98.845c20.059-9.643 43.461-7.233 61.291 7.233 25.631 21.698 30.088 62.682 10.029 90.407-6.686 9.643-14.487 15.671-24.517 19.287l-295.313 139.829c-53.491 24.109-117.011 16.876-164.929-24.109l-192.789-162.732c-3.343-3.616-4.458-9.643-1.114-13.26l118.125-163.938c3.343-3.616 8.915-4.822 12.258-1.205l47.919 39.779c18.945 15.671 53.491 22.903 76.893 15.671l323.173-106.077c18.945-6.027 41.232-2.411 57.948 12.054l342.117 289.302c25.631 21.698 30.088 61.477 10.029 90.407z" />
<glyph unicode="&#xe972;" glyph-name="users" horiz-adv-x="1152" d="M768 189.388v52.78c70.498 39.728 128 138.772 128 237.832 0 159.058 0 288-192 288s-192-128.942-192-288c0-99.060 57.502-198.104 128-237.832v-52.78c-217.102-17.748-384-124.42-384-253.388h896c0 128.968-166.898 235.64-384 253.388zM327.196 164.672c55.31 36.15 124.080 63.636 199.788 80.414-15.054 17.784-28.708 37.622-40.492 59.020-30.414 55.234-46.492 116.058-46.492 175.894 0 86.042 0 167.31 30.6 233.762 29.706 64.504 83.128 104.496 159.222 119.488-16.914 76.48-61.94 126.75-181.822 126.75-192 0-192-128.942-192-288 0-99.060 57.502-198.104 128-237.832v-52.78c-217.102-17.748-384-124.42-384-253.388h279.006c14.518 12.91 30.596 25.172 48.19 36.672z" />
<glyph unicode="&#xe976;" glyph-name="user-tie" d="M320 768c0 106.039 85.961 192 192 192s192-85.961 192-192c0-106.039-85.961-192-192-192s-192 85.961-192 192zM768.078 512h-35.424l-199.104-404.244 74.45 372.244-96 96-96-96 74.45-372.244-199.102 404.244h-35.424c-127.924 0-127.924-85.986-127.924-192v-320h768v320c0 106.014 0 192-127.922 192z" />
<glyph unicode="&#xe99b;" glyph-name="stats" d="M128 64h896v-128h-1024v1024h128zM288 128c-53.020 0-96 42.98-96 96s42.98 96 96 96c2.828 0 5.622-0.148 8.388-0.386l103.192 171.986c-9.84 15.070-15.58 33.062-15.58 52.402 0 53.020 42.98 96 96 96s96-42.98 96-96c0-19.342-5.74-37.332-15.58-52.402l103.192-171.986c2.766 0.238 5.56 0.386 8.388 0.386 2.136 0 4.248-0.094 6.35-0.23l170.356 298.122c-10.536 15.408-16.706 34.036-16.706 54.11 0 53.020 42.98 96 96 96s96-42.98 96-96c0-53.020-42.98-96-96-96-2.14 0-4.248 0.094-6.35 0.232l-170.356-298.124c10.536-15.406 16.706-34.036 16.706-54.11 0-53.020-42.98-96-96-96s-96 42.98-96 96c0 19.34 5.74 37.332 15.578 52.402l-103.19 171.984c-2.766-0.238-5.56-0.386-8.388-0.386s-5.622 0.146-8.388 0.386l-103.192-171.986c9.84-15.068 15.58-33.060 15.58-52.4 0-53.020-42.98-96-96-96z" />
<glyph unicode="&#xe9aa;" glyph-name="lab" d="M956.29 155.518l-316.29 527.024v213.458h32c17.6 0 32 14.4 32 32s-14.4 32-32 32h-320c-17.6 0-32-14.4-32-32s14.4-32 32-32h32v-213.458l-316.288-527.024c-72.442-120.734-16.512-219.518 124.288-219.518h640c140.8 0 196.73 98.784 124.29 219.518zM241.038 320l206.962 344.938v231.062h128v-231.062l206.964-344.938h-541.926z" />
<glyph unicode="&#xe9ae;" glyph-name="briefcase" d="M960 704h-256v64c0 35.2-28.8 64-64 64h-256c-35.204 0-64-28.8-64-64v-64h-256c-35.2 0-64-28.8-64-64v-576c0-35.202 28.796-64 64-64h896c35.2 0 64 28.798 64 64v576c0 35.2-28.8 64-64 64zM384 767.884c0.034 0.040 0.074 0.082 0.114 0.116h255.772c0.042-0.034 0.082-0.076 0.118-0.116v-63.884h-256.004v63.884zM960 448h-128v-96c0-17.602-14.4-32-32-32h-64c-17.604 0-32 14.398-32 32v96h-384v-96c0-17.602-14.4-32-32-32h-64c-17.602 0-32 14.398-32 32v96h-128v64h896v-64z" />
<glyph unicode="&#xe9b2;" glyph-name="accessibility" d="M416 864c0 53.018 42.98 96 96 96s96-42.982 96-96c0-53.020-42.98-96-96-96s-96 42.98-96 96zM640 640l329.596 142.172-23.77 59.424-401.826-137.596h-64l-401.826 137.596-23.77-59.424 329.596-142.172v-256l-131.27-424.57 59.84-22.7 185.716 415.27h27.428l185.716-415.27 59.84 22.7-131.27 424.57z" />
<glyph unicode="&#xe9d9;" glyph-name="star-full" d="M1024 562.95l-353.78 51.408-158.22 320.582-158.216-320.582-353.784-51.408 256-249.538-60.432-352.352 316.432 166.358 316.432-166.358-60.434 352.352 256.002 249.538z" />
<glyph unicode="&#xea0a;" glyph-name="plus" d="M992 576h-352v352c0 17.672-14.328 32-32 32h-192c-17.672 0-32-14.328-32-32v-352h-352c-17.672 0-32-14.328-32-32v-192c0-17.672 14.328-32 32-32h352v-352c0-17.672 14.328-32 32-32h192c17.672 0 32 14.328 32 32v352h352c17.672 0 32 14.328 32 32v192c0 17.672-14.328 32-32 32z" />
<glyph unicode="&#xea0b;" glyph-name="minus" d="M0 544v-192c0-17.672 14.328-32 32-32h960c17.672 0 32 14.328 32 32v192c0 17.672-14.328 32-32 32h-960c-17.672 0-32-14.328-32-32z" />
<glyph unicode="&#xea0f;" glyph-name="cross" d="M1014.662 137.34c-0.004 0.004-0.008 0.008-0.012 0.010l-310.644 310.65 310.644 310.65c0.004 0.004 0.008 0.006 0.012 0.010 3.344 3.346 5.762 7.254 7.312 11.416 4.246 11.376 1.824 24.682-7.324 33.83l-146.746 146.746c-9.148 9.146-22.45 11.566-33.828 7.32-4.16-1.55-8.070-3.968-11.418-7.31 0-0.004-0.004-0.006-0.008-0.010l-310.648-310.652-310.648 310.65c-0.004 0.004-0.006 0.006-0.010 0.010-3.346 3.342-7.254 5.76-11.414 7.31-11.38 4.248-24.682 1.826-33.83-7.32l-146.748-146.748c-9.148-9.148-11.568-22.452-7.322-33.828 1.552-4.16 3.97-8.072 7.312-11.416 0.004-0.002 0.006-0.006 0.010-0.010l310.65-310.648-310.65-310.652c-0.002-0.004-0.006-0.006-0.008-0.010-3.342-3.346-5.76-7.254-7.314-11.414-4.248-11.376-1.826-24.682 7.322-33.83l146.748-146.746c9.15-9.148 22.452-11.568 33.83-7.322 4.16 1.552 8.070 3.97 11.416 7.312 0.002 0.004 0.006 0.006 0.010 0.010l310.648 310.65 310.648-310.65c0.004-0.002 0.008-0.006 0.012-0.008 3.348-3.344 7.254-5.762 11.414-7.314 11.378-4.246 24.684-1.826 33.828 7.322l146.746 146.748c9.148 9.148 11.57 22.454 7.324 33.83-1.552 4.16-3.97 8.068-7.314 11.414z" />
<glyph unicode="&#xea10;" glyph-name="checkmark" d="M864 832l-480-480-224 224-160-160 384-384 640 640z" />
<glyph unicode="&#xeadf;" glyph-name="file-pdf" d="M842.012 370.52c-13.648 13.446-43.914 20.566-89.972 21.172-31.178 0.344-68.702-2.402-108.17-7.928-17.674 10.198-35.892 21.294-50.188 34.658-38.462 35.916-70.568 85.772-90.576 140.594 1.304 5.12 2.414 9.62 3.448 14.212 0 0 21.666 123.060 15.932 164.666-0.792 5.706-1.276 7.362-2.808 11.796l-1.882 4.834c-5.894 13.592-17.448 27.994-35.564 27.208l-10.916 0.344c-20.202 0-36.664-10.332-40.986-25.774-13.138-48.434 0.418-120.892 24.98-214.738l-6.288-15.286c-17.588-42.876-39.63-86.060-59.078-124.158l-2.528-4.954c-20.46-40.040-39.026-74.028-55.856-102.822l-17.376-9.188c-1.264-0.668-31.044-16.418-38.028-20.644-59.256-35.38-98.524-75.542-105.038-107.416-2.072-10.17-0.53-23.186 10.014-29.212l16.806-8.458c7.292-3.652 14.978-5.502 22.854-5.502 42.206 0 91.202 52.572 158.698 170.366 77.93 25.37 166.652 46.458 244.412 58.090 59.258-33.368 132.142-56.544 178.142-56.544 8.168 0 15.212 0.78 20.932 2.294 8.822 2.336 16.258 7.368 20.792 14.194 8.926 13.432 10.734 31.932 8.312 50.876-0.72 5.622-5.21 12.574-10.068 17.32zM211.646 145.952c7.698 21.042 38.16 62.644 83.206 99.556 2.832 2.296 9.808 8.832 16.194 14.902-47.104-75.124-78.648-105.066-99.4-114.458zM478.434 760.314c13.566 0 21.284-34.194 21.924-66.254s-6.858-54.56-16.158-71.208c-7.702 24.648-11.426 63.5-11.426 88.904 0 0-0.566 48.558 5.66 48.558v0zM398.852 322.506c9.45 16.916 19.282 34.756 29.33 53.678 24.492 46.316 39.958 82.556 51.478 112.346 22.91-41.684 51.444-77.12 84.984-105.512 4.186-3.542 8.62-7.102 13.276-10.65-68.21-13.496-127.164-29.91-179.068-49.862v0zM828.902 326.348c-4.152-2.598-16.052-4.1-23.708-4.1-24.708 0-55.272 11.294-98.126 29.666 16.468 1.218 31.562 1.838 45.102 1.838 24.782 0 32.12 0.108 56.35-6.072 24.228-6.18 24.538-18.734 20.382-21.332v0zM917.806 730.924c-22.21 30.292-53.174 65.7-87.178 99.704s-69.412 64.964-99.704 87.178c-51.574 37.82-76.592 42.194-90.924 42.194h-496c-44.112 0-80-35.888-80-80v-864c0-44.112 35.886-80 80-80h736c44.112 0 80 35.888 80 80v624c0 14.332-4.372 39.35-42.194 90.924v0zM785.374 785.374c30.7-30.7 54.8-58.398 72.58-81.374h-153.954v153.946c22.982-17.78 50.678-41.878 81.374-72.572v0zM896 16c0-8.672-7.328-16-16-16h-736c-8.672 0-16 7.328-16 16v864c0 8.672 7.328 16 16 16 0 0 495.956 0.002 496 0v-224c0-17.672 14.324-32 32-32h224v-624z" />
<glyph unicode="&#xeae1;" glyph-name="file-word" d="M639.778 484.108h44.21l-51.012-226.178-66.324 318.010h-106.55l-77.114-318.010-57.816 318.010h-111.394l113.092-511.88h108.838l76.294 302.708 68.256-302.708h100.336l129.628 511.88h-170.446v-91.832zM917.806 730.924c-22.21 30.292-53.174 65.7-87.178 99.704s-69.412 64.964-99.704 87.178c-51.574 37.82-76.592 42.194-90.924 42.194h-496c-44.112 0-80-35.888-80-80v-864c0-44.112 35.886-80 80-80h736c44.112 0 80 35.888 80 80v624c0 14.332-4.372 39.35-42.194 90.924v0zM785.374 785.374c30.7-30.7 54.8-58.398 72.58-81.374h-153.954v153.946c22.982-17.78 50.678-41.878 81.374-72.572v0zM896 16c0-8.672-7.328-16-16-16h-736c-8.672 0-16 7.328-16 16v864c0 8.672 7.328 16 16 16 0 0 495.956 0.002 496 0v-224c0-17.672 14.324-32 32-32h224v-624z" />
<glyph unicode="&#xeae2;" glyph-name="file-excel" d="M743.028 576h-135.292l-95.732-141.032-95.742 141.032h-135.29l162.162-242.464-182.972-269.536h251.838v91.576h-50.156l50.156 74.994 111.396-166.57h140.444l-182.976 269.536 162.164 242.464zM917.806 730.924c-22.21 30.292-53.174 65.7-87.178 99.704s-69.412 64.964-99.704 87.178c-51.574 37.82-76.592 42.194-90.924 42.194h-496c-44.112 0-80-35.888-80-80v-864c0-44.112 35.886-80 80-80h736c44.112 0 80 35.888 80 80v624c0 14.332-4.372 39.35-42.194 90.924v0zM785.374 785.374c30.7-30.7 54.8-58.398 72.58-81.374h-153.954v153.946c22.982-17.78 50.678-41.878 81.374-72.572v0zM896 16c0-8.672-7.328-16-16-16h-736c-8.672 0-16 7.328-16 16v864c0 8.672 7.328 16 16 16 0 0 495.956 0.002 496 0v-224c0-17.672 14.324-32 32-32h224v-624z" />
</font>
</defs>
</svg>
